<svg width="40" height="39" viewBox="0 0 40 39" fill="none" xmlns="http://www.w3.org/2000/svg">
<g filter="url(#filter0_d)">
<path d="M30.1164 31H9.88353C8.12085 31 6.54228 30.0309 5.66101 28.4078C4.77974 26.7848 4.77959 24.8466 5.66101 23.2234L15.7775 4.59215C16.6588 2.96911 18.2374 2 20 2C21.7627 2 23.3413 2.96911 24.2226 4.59215L34.3389 23.2234C35.2204 24.8466 35.2204 26.7846 34.3389 28.4078C33.4575 30.031 31.8789 31 30.1164 31ZM20 3.48997C18.7439 3.48997 17.6191 4.1806 16.991 5.33714L6.87458 23.9684C6.24654 25.1251 6.24664 26.5062 6.87458 27.6628C7.50252 28.8195 8.62746 29.51 9.88358 29.51H30.1163C31.3724 29.51 32.4972 28.8194 33.1253 27.6628C33.7533 26.5063 33.7533 25.125 33.1253 23.9684L23.0089 5.33714C22.381 4.18044 21.2562 3.48997 20 3.48997ZM32.2299 24.0526L22.4754 6.08765C21.9588 5.136 21.0334 4.56802 20 4.56802C18.9666 4.56802 18.0412 5.13616 17.5245 6.08765L7.76997 24.0526C7.25316 25.0042 7.2533 26.1404 7.76997 27.0919C8.28663 28.0434 9.21202 28.6115 10.2455 28.6115H29.7545C30.788 28.6115 31.7134 28.0434 32.2301 27.0919C32.7467 26.1404 32.7466 25.0041 32.2299 24.0526ZM18.2334 11.6936C18.2334 10.658 19.0259 9.81535 19.9999 9.81535C20.9739 9.81535 21.7664 10.658 21.7664 11.6936V17.7892C21.7664 18.8249 20.9739 19.6675 19.9999 19.6675C19.0259 19.6675 18.2334 18.8249 18.2334 17.7892V11.6936ZM19.9999 25.2079C19.0018 25.2079 18.1897 24.3445 18.1897 23.2832C18.1897 22.2218 19.0018 21.3584 19.9999 21.3584C20.998 21.3584 21.8101 22.2218 21.8101 23.2832C21.8101 24.3445 20.998 25.2079 19.9999 25.2079Z" fill="#00ADEE"/>
</g>
<defs>
<filter id="filter0_d" x="0" y="0" width="40" height="39" filterUnits="userSpaceOnUse" color-interpolation-filters="sRGB">
<feFlood flood-opacity="0" result="BackgroundImageFix"/>
<feColorMatrix in="SourceAlpha" type="matrix" values="0 0 0 0 0 0 0 0 0 0 0 0 0 0 0 0 0 0 127 0"/>
<feOffset dy="3"/>
<feGaussianBlur stdDeviation="2.5"/>
<feColorMatrix type="matrix" values="0 0 0 0 0 0 0 0 0 0.678431 0 0 0 0 0.933333 0 0 0 0.5 0"/>
<feBlend mode="normal" in2="BackgroundImageFix" result="effect1_dropShadow"/>
<feBlend mode="normal" in="SourceGraphic" in2="effect1_dropShadow" result="shape"/>
</filter>
</defs>
</svg>
