<svg width="116" height="116" viewBox="0 0 116 116" fill="none" xmlns="http://www.w3.org/2000/svg">
<g filter="url(#filter0_d)">
<circle cx="58" cy="53" r="50" fill="#F7FDFF"/>
</g>
<g filter="url(#filter1_d)">
<path d="M83.862 35.3286L49.5647 28.0584C48.1136 27.7509 46.6753 28.6886 46.3683 30.1421L45.7167 34.3364L85.2901 42.7245L85.9417 38.5302C86.2487 37.0773 85.313 35.6362 83.862 35.3286Z" fill="url(#paint0_linear)"/>
<path d="M69.439 43.614C69.0384 42.1689 67.5308 41.3148 66.0886 41.7154L59.5778 43.5259L44.2287 40.2722L42.5406 48.2612L31.9935 51.1934C30.5514 51.5941 29.6987 53.1042 30.0987 54.5488L36.0426 76.003C36.4432 77.4475 37.9509 78.3022 39.393 77.901L73.4881 68.4237C74.9302 68.0224 75.7829 66.5129 75.383 65.0677L74.3627 61.3847L78.1865 62.1945C79.6376 62.5025 81.0759 61.5648 81.3829 60.1114L83.8021 48.6603L70.0284 45.7409L69.439 43.614ZM73.3765 54.5179L74.2198 50.5262C74.3464 49.9285 74.9381 49.543 75.5347 49.6692L79.5198 50.5143C80.1171 50.6412 80.502 51.2332 80.376 51.8314L79.5327 55.8231C79.4061 56.4208 78.8145 56.8069 78.2178 56.6801L74.2327 55.8355C73.6349 55.7082 73.2499 55.1156 73.3765 54.5179ZM32.5868 53.3343L66.6807 43.8576C66.7245 43.8458 66.7681 43.8402 66.8108 43.8402C67.0029 43.8402 67.2327 43.9665 67.2999 44.2083L68.4624 48.4037L33.3992 58.1499L32.2367 53.955C32.1638 53.6918 32.3241 53.4073 32.5868 53.3343ZM73.2449 65.6614C73.2897 65.8242 73.2427 65.9588 73.195 66.043C73.148 66.1272 73.0572 66.2372 72.8947 66.2821L38.8002 75.7594C38.7571 75.7712 38.7128 75.7774 38.6702 75.7774C38.478 75.7774 38.2483 75.6505 38.1811 75.4086L34.7142 62.8947L69.7774 53.148L73.2449 65.6614Z" fill="url(#paint1_linear)"/>
<path d="M44.3093 66.5177C44.1457 65.9285 43.5316 65.5805 42.9433 65.7439L38.9615 66.8511C38.3738 67.0144 38.0259 67.63 38.1895 68.2193L39.2943 72.2071C39.4579 72.7963 40.072 73.1442 40.6603 72.9804L44.6421 71.8737C45.2304 71.7104 45.5777 71.0947 45.4147 70.5055L44.3093 66.5177Z" fill="url(#paint2_linear)"/>
</g>
<defs>
<filter id="filter0_d" x="0" y="0" width="116" height="116" filterUnits="userSpaceOnUse" color-interpolation-filters="sRGB">
<feFlood flood-opacity="0" result="BackgroundImageFix"/>
<feColorMatrix in="SourceAlpha" type="matrix" values="0 0 0 0 0 0 0 0 0 0 0 0 0 0 0 0 0 0 127 0"/>
<feOffset dy="5"/>
<feGaussianBlur stdDeviation="4"/>
<feColorMatrix type="matrix" values="0 0 0 0 0 0 0 0 0 0.678431 0 0 0 0 0.933333 0 0 0 0.5 0"/>
<feBlend mode="normal" in2="BackgroundImageFix" result="effect1_dropShadow"/>
<feBlend mode="normal" in="SourceGraphic" in2="effect1_dropShadow" result="shape"/>
</filter>
<filter id="filter1_d" x="25" y="26" width="66" height="60" filterUnits="userSpaceOnUse" color-interpolation-filters="sRGB">
<feFlood flood-opacity="0" result="BackgroundImageFix"/>
<feColorMatrix in="SourceAlpha" type="matrix" values="0 0 0 0 0 0 0 0 0 0 0 0 0 0 0 0 0 0 127 0"/>
<feOffset dy="3"/>
<feGaussianBlur stdDeviation="2.5"/>
<feColorMatrix type="matrix" values="0 0 0 0 0 0 0 0 0 0.678431 0 0 0 0 0.933333 0 0 0 0.5 0"/>
<feBlend mode="normal" in2="BackgroundImageFix" result="effect1_dropShadow"/>
<feBlend mode="normal" in="SourceGraphic" in2="effect1_dropShadow" result="shape"/>
</filter>
<linearGradient id="paint0_linear" x1="30" y1="53" x2="86" y2="53" gradientUnits="userSpaceOnUse">
<stop stop-color="#00ADEE"/>
<stop offset="1" stop-color="#00B08D"/>
</linearGradient>
<linearGradient id="paint1_linear" x1="30" y1="53" x2="86" y2="53" gradientUnits="userSpaceOnUse">
<stop stop-color="#00ADEE"/>
<stop offset="1" stop-color="#00B08D"/>
</linearGradient>
<linearGradient id="paint2_linear" x1="30" y1="53" x2="86" y2="53" gradientUnits="userSpaceOnUse">
<stop stop-color="#00ADEE"/>
<stop offset="1" stop-color="#00B08D"/>
</linearGradient>
</defs>
</svg>
