<svg width="116" height="116" viewBox="0 0 116 116" fill="none" xmlns="http://www.w3.org/2000/svg">
<g filter="url(#filter0_d)">
<circle cx="58" cy="53" r="50" fill="#F7FDFF"/>
</g>
<g filter="url(#filter1_d)">
<path d="M74.875 37.1667C73.5725 36.4683 65.4733 32.1083 61.0225 29.3158C60.2625 28.51 59.1925 28 58 28C56.8075 28 55.7375 28.51 54.9775 29.3158C50.5258 32.1075 42.4275 36.4683 41.125 37.1667H33V78H83V37.1667H74.875ZM53.8383 31.9617C53.835 32.03 53.8333 32.0983 53.8333 32.1667C53.8333 34.4642 55.7025 36.3333 58 36.3333C60.2975 36.3333 62.1667 34.4642 62.1667 32.1667C62.1667 32.0983 62.165 32.03 62.1617 31.9617C65.1558 33.7417 68.8575 35.7925 71.3758 37.1667H44.6242C47.1425 35.7925 50.8442 33.7417 53.8383 31.9617ZM34.6667 76.3333V44.6667H81.3333V76.3333H34.6667Z" fill="url(#paint0_linear)"/>
<path d="M52.1667 52.1667C52.6269 52.1667 53 51.7936 53 51.3333C53 50.8731 52.6269 50.5 52.1667 50.5C51.7064 50.5 51.3333 50.8731 51.3333 51.3333C51.3333 51.7936 51.7064 52.1667 52.1667 52.1667Z" fill="url(#paint1_linear)"/>
<path d="M58 52.1667C58.4602 52.1667 58.8333 51.7936 58.8333 51.3333C58.8333 50.8731 58.4602 50.5 58 50.5C57.5398 50.5 57.1667 50.8731 57.1667 51.3333C57.1667 51.7936 57.5398 52.1667 58 52.1667Z" fill="url(#paint2_linear)"/>
<path d="M63.8333 52.1667C64.2936 52.1667 64.6667 51.7936 64.6667 51.3333C64.6667 50.8731 64.2936 50.5 63.8333 50.5C63.3731 50.5 63 50.8731 63 51.3333C63 51.7936 63.3731 52.1667 63.8333 52.1667Z" fill="url(#paint3_linear)"/>
<path d="M69.6667 52.1667C70.1269 52.1667 70.5 51.7936 70.5 51.3333C70.5 50.8731 70.1269 50.5 69.6667 50.5C69.2064 50.5 68.8333 50.8731 68.8333 51.3333C68.8333 51.7936 69.2064 52.1667 69.6667 52.1667Z" fill="url(#paint4_linear)"/>
<path d="M75.5 52.1667C75.9602 52.1667 76.3333 51.7936 76.3333 51.3333C76.3333 50.8731 75.9602 50.5 75.5 50.5C75.0398 50.5 74.6667 50.8731 74.6667 51.3333C74.6667 51.7936 75.0398 52.1667 75.5 52.1667Z" fill="url(#paint5_linear)"/>
<path d="M40.5 58.8333C40.9602 58.8333 41.3333 58.4602 41.3333 58C41.3333 57.5398 40.9602 57.1667 40.5 57.1667C40.0398 57.1667 39.6667 57.5398 39.6667 58C39.6667 58.4602 40.0398 58.8333 40.5 58.8333Z" fill="url(#paint6_linear)"/>
<path d="M46.3333 58.8333C46.7936 58.8333 47.1667 58.4602 47.1667 58C47.1667 57.5398 46.7936 57.1667 46.3333 57.1667C45.8731 57.1667 45.5 57.5398 45.5 58C45.5 58.4602 45.8731 58.8333 46.3333 58.8333Z" fill="url(#paint7_linear)"/>
<path d="M52.1667 58.8333C52.6269 58.8333 53 58.4602 53 58C53 57.5398 52.6269 57.1667 52.1667 57.1667C51.7064 57.1667 51.3333 57.5398 51.3333 58C51.3333 58.4602 51.7064 58.8333 52.1667 58.8333Z" fill="url(#paint8_linear)"/>
<path d="M58 58.8333C58.4602 58.8333 58.8333 58.4602 58.8333 58C58.8333 57.5398 58.4602 57.1667 58 57.1667C57.5398 57.1667 57.1667 57.5398 57.1667 58C57.1667 58.4602 57.5398 58.8333 58 58.8333Z" fill="url(#paint9_linear)"/>
<path d="M63.8333 58.8333C64.2936 58.8333 64.6667 58.4602 64.6667 58C64.6667 57.5398 64.2936 57.1667 63.8333 57.1667C63.3731 57.1667 63 57.5398 63 58C63 58.4602 63.3731 58.8333 63.8333 58.8333Z" fill="url(#paint10_linear)"/>
<path d="M69.6667 58.8333C70.1269 58.8333 70.5 58.4602 70.5 58C70.5 57.5398 70.1269 57.1667 69.6667 57.1667C69.2064 57.1667 68.8333 57.5398 68.8333 58C68.8333 58.4602 69.2064 58.8333 69.6667 58.8333Z" fill="url(#paint11_linear)"/>
<path d="M75.5 58.8333C75.9602 58.8333 76.3333 58.4602 76.3333 58C76.3333 57.5398 75.9602 57.1667 75.5 57.1667C75.0398 57.1667 74.6667 57.5398 74.6667 58C74.6667 58.4602 75.0398 58.8333 75.5 58.8333Z" fill="url(#paint12_linear)"/>
<path d="M40.5 64.6667C40.9602 64.6667 41.3333 64.2936 41.3333 63.8333C41.3333 63.3731 40.9602 63 40.5 63C40.0398 63 39.6667 63.3731 39.6667 63.8333C39.6667 64.2936 40.0398 64.6667 40.5 64.6667Z" fill="url(#paint13_linear)"/>
<path d="M46.3333 64.6667C46.7936 64.6667 47.1667 64.2936 47.1667 63.8333C47.1667 63.3731 46.7936 63 46.3333 63C45.8731 63 45.5 63.3731 45.5 63.8333C45.5 64.2936 45.8731 64.6667 46.3333 64.6667Z" fill="url(#paint14_linear)"/>
<path d="M52.1667 64.6667C52.6269 64.6667 53 64.2936 53 63.8333C53 63.3731 52.6269 63 52.1667 63C51.7064 63 51.3333 63.3731 51.3333 63.8333C51.3333 64.2936 51.7064 64.6667 52.1667 64.6667Z" fill="url(#paint15_linear)"/>
<path d="M58 64.6667C58.4602 64.6667 58.8333 64.2936 58.8333 63.8333C58.8333 63.3731 58.4602 63 58 63C57.5398 63 57.1667 63.3731 57.1667 63.8333C57.1667 64.2936 57.5398 64.6667 58 64.6667Z" fill="url(#paint16_linear)"/>
<path d="M63.8333 64.6667C64.2936 64.6667 64.6667 64.2936 64.6667 63.8333C64.6667 63.3731 64.2936 63 63.8333 63C63.3731 63 63 63.3731 63 63.8333C63 64.2936 63.3731 64.6667 63.8333 64.6667Z" fill="url(#paint17_linear)"/>
<path d="M69.6667 64.6667C70.1269 64.6667 70.5 64.2936 70.5 63.8333C70.5 63.3731 70.1269 63 69.6667 63C69.2064 63 68.8333 63.3731 68.8333 63.8333C68.8333 64.2936 69.2064 64.6667 69.6667 64.6667Z" fill="url(#paint18_linear)"/>
<path d="M75.5 64.6667C75.9602 64.6667 76.3333 64.2936 76.3333 63.8333C76.3333 63.3731 75.9602 63 75.5 63C75.0398 63 74.6667 63.3731 74.6667 63.8333C74.6667 64.2936 75.0398 64.6667 75.5 64.6667Z" fill="url(#paint19_linear)"/>
<path d="M40.5 71.3333C40.9602 71.3333 41.3333 70.9602 41.3333 70.5C41.3333 70.0398 40.9602 69.6667 40.5 69.6667C40.0398 69.6667 39.6667 70.0398 39.6667 70.5C39.6667 70.9602 40.0398 71.3333 40.5 71.3333Z" fill="url(#paint20_linear)"/>
<path d="M46.3333 71.3333C46.7936 71.3333 47.1667 70.9602 47.1667 70.5C47.1667 70.0398 46.7936 69.6667 46.3333 69.6667C45.8731 69.6667 45.5 70.0398 45.5 70.5C45.5 70.9602 45.8731 71.3333 46.3333 71.3333Z" fill="url(#paint21_linear)"/>
<path d="M52.1667 71.3333C52.6269 71.3333 53 70.9602 53 70.5C53 70.0398 52.6269 69.6667 52.1667 69.6667C51.7064 69.6667 51.3333 70.0398 51.3333 70.5C51.3333 70.9602 51.7064 71.3333 52.1667 71.3333Z" fill="url(#paint22_linear)"/>
<path d="M58 71.3333C58.4602 71.3333 58.8333 70.9602 58.8333 70.5C58.8333 70.0398 58.4602 69.6667 58 69.6667C57.5398 69.6667 57.1667 70.0398 57.1667 70.5C57.1667 70.9602 57.5398 71.3333 58 71.3333Z" fill="url(#paint23_linear)"/>
<path d="M63.8333 71.3333C64.2936 71.3333 64.6667 70.9602 64.6667 70.5C64.6667 70.0398 64.2936 69.6667 63.8333 69.6667C63.3731 69.6667 63 70.0398 63 70.5C63 70.9602 63.3731 71.3333 63.8333 71.3333Z" fill="url(#paint24_linear)"/>
</g>
<defs>
<filter id="filter0_d" x="0" y="0" width="116" height="116" filterUnits="userSpaceOnUse" color-interpolation-filters="sRGB">
<feFlood flood-opacity="0" result="BackgroundImageFix"/>
<feColorMatrix in="SourceAlpha" type="matrix" values="0 0 0 0 0 0 0 0 0 0 0 0 0 0 0 0 0 0 127 0"/>
<feOffset dy="5"/>
<feGaussianBlur stdDeviation="4"/>
<feColorMatrix type="matrix" values="0 0 0 0 0 0 0 0 0 0.678431 0 0 0 0 0.933333 0 0 0 0.5 0"/>
<feBlend mode="normal" in2="BackgroundImageFix" result="effect1_dropShadow"/>
<feBlend mode="normal" in="SourceGraphic" in2="effect1_dropShadow" result="shape"/>
</filter>
<filter id="filter1_d" x="28" y="26" width="60" height="60" filterUnits="userSpaceOnUse" color-interpolation-filters="sRGB">
<feFlood flood-opacity="0" result="BackgroundImageFix"/>
<feColorMatrix in="SourceAlpha" type="matrix" values="0 0 0 0 0 0 0 0 0 0 0 0 0 0 0 0 0 0 127 0"/>
<feOffset dy="3"/>
<feGaussianBlur stdDeviation="2.5"/>
<feColorMatrix type="matrix" values="0 0 0 0 0 0 0 0 0 0.678431 0 0 0 0 0.933333 0 0 0 0.5 0"/>
<feBlend mode="normal" in2="BackgroundImageFix" result="effect1_dropShadow"/>
<feBlend mode="normal" in="SourceGraphic" in2="effect1_dropShadow" result="shape"/>
</filter>
<linearGradient id="paint0_linear" x1="33" y1="53" x2="83" y2="53" gradientUnits="userSpaceOnUse">
<stop stop-color="#00ADEE"/>
<stop offset="1" stop-color="#00B08D"/>
</linearGradient>
<linearGradient id="paint1_linear" x1="33" y1="53" x2="83" y2="53" gradientUnits="userSpaceOnUse">
<stop stop-color="#00ADEE"/>
<stop offset="1" stop-color="#00B08D"/>
</linearGradient>
<linearGradient id="paint2_linear" x1="33" y1="53" x2="83" y2="53" gradientUnits="userSpaceOnUse">
<stop stop-color="#00ADEE"/>
<stop offset="1" stop-color="#00B08D"/>
</linearGradient>
<linearGradient id="paint3_linear" x1="33" y1="53" x2="83" y2="53" gradientUnits="userSpaceOnUse">
<stop stop-color="#00ADEE"/>
<stop offset="1" stop-color="#00B08D"/>
</linearGradient>
<linearGradient id="paint4_linear" x1="33" y1="53" x2="83" y2="53" gradientUnits="userSpaceOnUse">
<stop stop-color="#00ADEE"/>
<stop offset="1" stop-color="#00B08D"/>
</linearGradient>
<linearGradient id="paint5_linear" x1="33" y1="53" x2="83" y2="53" gradientUnits="userSpaceOnUse">
<stop stop-color="#00ADEE"/>
<stop offset="1" stop-color="#00B08D"/>
</linearGradient>
<linearGradient id="paint6_linear" x1="33" y1="53" x2="83" y2="53" gradientUnits="userSpaceOnUse">
<stop stop-color="#00ADEE"/>
<stop offset="1" stop-color="#00B08D"/>
</linearGradient>
<linearGradient id="paint7_linear" x1="33" y1="53" x2="83" y2="53" gradientUnits="userSpaceOnUse">
<stop stop-color="#00ADEE"/>
<stop offset="1" stop-color="#00B08D"/>
</linearGradient>
<linearGradient id="paint8_linear" x1="33" y1="53" x2="83" y2="53" gradientUnits="userSpaceOnUse">
<stop stop-color="#00ADEE"/>
<stop offset="1" stop-color="#00B08D"/>
</linearGradient>
<linearGradient id="paint9_linear" x1="33" y1="53" x2="83" y2="53" gradientUnits="userSpaceOnUse">
<stop stop-color="#00ADEE"/>
<stop offset="1" stop-color="#00B08D"/>
</linearGradient>
<linearGradient id="paint10_linear" x1="33" y1="53" x2="83" y2="53" gradientUnits="userSpaceOnUse">
<stop stop-color="#00ADEE"/>
<stop offset="1" stop-color="#00B08D"/>
</linearGradient>
<linearGradient id="paint11_linear" x1="33" y1="53" x2="83" y2="53" gradientUnits="userSpaceOnUse">
<stop stop-color="#00ADEE"/>
<stop offset="1" stop-color="#00B08D"/>
</linearGradient>
<linearGradient id="paint12_linear" x1="33" y1="53" x2="83" y2="53" gradientUnits="userSpaceOnUse">
<stop stop-color="#00ADEE"/>
<stop offset="1" stop-color="#00B08D"/>
</linearGradient>
<linearGradient id="paint13_linear" x1="33" y1="53" x2="83" y2="53" gradientUnits="userSpaceOnUse">
<stop stop-color="#00ADEE"/>
<stop offset="1" stop-color="#00B08D"/>
</linearGradient>
<linearGradient id="paint14_linear" x1="33" y1="53" x2="83" y2="53" gradientUnits="userSpaceOnUse">
<stop stop-color="#00ADEE"/>
<stop offset="1" stop-color="#00B08D"/>
</linearGradient>
<linearGradient id="paint15_linear" x1="33" y1="53" x2="83" y2="53" gradientUnits="userSpaceOnUse">
<stop stop-color="#00ADEE"/>
<stop offset="1" stop-color="#00B08D"/>
</linearGradient>
<linearGradient id="paint16_linear" x1="33" y1="53" x2="83" y2="53" gradientUnits="userSpaceOnUse">
<stop stop-color="#00ADEE"/>
<stop offset="1" stop-color="#00B08D"/>
</linearGradient>
<linearGradient id="paint17_linear" x1="33" y1="53" x2="83" y2="53" gradientUnits="userSpaceOnUse">
<stop stop-color="#00ADEE"/>
<stop offset="1" stop-color="#00B08D"/>
</linearGradient>
<linearGradient id="paint18_linear" x1="33" y1="53" x2="83" y2="53" gradientUnits="userSpaceOnUse">
<stop stop-color="#00ADEE"/>
<stop offset="1" stop-color="#00B08D"/>
</linearGradient>
<linearGradient id="paint19_linear" x1="33" y1="53" x2="83" y2="53" gradientUnits="userSpaceOnUse">
<stop stop-color="#00ADEE"/>
<stop offset="1" stop-color="#00B08D"/>
</linearGradient>
<linearGradient id="paint20_linear" x1="33" y1="53" x2="83" y2="53" gradientUnits="userSpaceOnUse">
<stop stop-color="#00ADEE"/>
<stop offset="1" stop-color="#00B08D"/>
</linearGradient>
<linearGradient id="paint21_linear" x1="33" y1="53" x2="83" y2="53" gradientUnits="userSpaceOnUse">
<stop stop-color="#00ADEE"/>
<stop offset="1" stop-color="#00B08D"/>
</linearGradient>
<linearGradient id="paint22_linear" x1="33" y1="53" x2="83" y2="53" gradientUnits="userSpaceOnUse">
<stop stop-color="#00ADEE"/>
<stop offset="1" stop-color="#00B08D"/>
</linearGradient>
<linearGradient id="paint23_linear" x1="33" y1="53" x2="83" y2="53" gradientUnits="userSpaceOnUse">
<stop stop-color="#00ADEE"/>
<stop offset="1" stop-color="#00B08D"/>
</linearGradient>
<linearGradient id="paint24_linear" x1="33" y1="53" x2="83" y2="53" gradientUnits="userSpaceOnUse">
<stop stop-color="#00ADEE"/>
<stop offset="1" stop-color="#00B08D"/>
</linearGradient>
</defs>
</svg>
