<svg width="116" height="116" viewBox="0 0 116 116" fill="none" xmlns="http://www.w3.org/2000/svg">
<g filter="url(#filter0_d)">
<circle cx="58" cy="53" r="50" fill="#F7FDFF"/>
</g>
<g filter="url(#filter1_d)">
<path d="M82.2667 32H39.3333C37.2715 32 35.6 33.6582 35.6 35.7037V65.3333H30.9333C30.4179 65.3333 30 65.7479 30 66.2593C30 68.3047 31.6715 69.963 33.7333 69.963H60.8V81.0741C60.8001 81.5854 61.218 81.9999 61.7336 81.9998C61.981 81.9998 62.2182 81.9022 62.3932 81.7287L67.3333 76.8278L72.2735 81.7287C72.4485 81.9023 72.6858 82 72.9333 82C73.0561 82.0003 73.1775 81.9765 73.2908 81.9296C73.6395 81.7862 73.8668 81.4485 73.8667 81.0741V69.963H76.6667C78.7285 69.963 80.4 68.3047 80.4 66.2593V36.6296H85.0667C85.5821 36.6296 86 36.215 86 35.7037C86 33.6582 84.3285 32 82.2667 32ZM78.5333 35.7037V65.3333H74.8V67.1852H78.2823C77.9489 67.7579 77.3332 68.1108 76.6667 68.1111H73.8667V67.1852H72V78.8389L67.9932 74.8639C67.6287 74.5024 67.0379 74.5024 66.6735 74.8639L62.6667 78.8389V67.1852H60.8V68.1111H33.7333C33.0668 68.1108 32.4511 67.7579 32.1177 67.1852H59.8667V65.3333H37.4667V35.7037C37.4667 34.6809 38.3024 33.8519 39.3333 33.8519H79.0523C78.7164 34.4124 78.5372 35.0516 78.5333 35.7037ZM80.6511 34.7778C81.1674 33.8926 82.3094 33.5903 83.2017 34.1027C83.4842 34.2648 83.7188 34.4977 83.8823 34.7778H80.6511Z" fill="url(#paint0_linear)"/>
<path d="M76.1318 60.9769L74.9362 58.8519L76.1365 56.7288C76.3894 56.2832 76.2304 55.7186 75.7814 55.4677C75.7587 55.455 75.7355 55.4432 75.7118 55.4325L73.484 54.4204L73.1965 52.0038C73.1357 51.496 72.6714 51.1333 72.1596 51.1936C72.1358 51.1964 72.1121 51.2001 72.0886 51.2047L69.6825 51.6778L68.0184 49.8899C67.6459 49.5145 67.0372 49.5098 66.6589 49.8794C66.6552 49.8828 66.6517 49.8864 66.6482 49.8899L64.9841 51.6778L62.578 51.2047C62.0723 51.1055 61.5813 51.4318 61.4813 51.9334C61.4766 51.9567 61.4729 51.9802 61.4701 52.0038L61.1826 54.4204L58.9548 55.4343C58.4861 55.6472 58.2801 56.1967 58.4946 56.6616C58.5055 56.6851 58.5173 56.7082 58.5301 56.7306L59.7304 58.8519L58.5301 60.9751C58.2772 61.4207 58.4362 61.9852 58.8852 62.2362C58.9079 62.2488 58.9311 62.2606 58.9548 62.2714L61.1826 63.2852L61.4701 65.7038C61.5309 66.2115 61.9952 66.5743 62.507 66.514C62.5308 66.5112 62.5545 66.5075 62.578 66.5028L64.9841 66.0297L66.6482 67.8177C66.9984 68.193 67.5888 68.2157 67.9672 67.8685C67.9849 67.8521 68.0019 67.8352 68.0184 67.8177L69.6825 66.0297L72.0886 66.5028C72.3437 66.5546 72.6089 66.4967 72.8185 66.3436C73.0271 66.191 73.1623 65.9592 73.1918 65.7038L73.4793 63.2871L75.7072 62.2732C76.1758 62.0604 76.3819 61.5108 76.1673 61.0459C76.1565 61.0224 76.1446 60.9994 76.1318 60.9769ZM73.0528 59.3038L74.0132 61.0038L72.2286 61.8158C71.9328 61.9505 71.7291 62.2284 71.691 62.5491L71.4614 64.4871L69.5322 64.1084C69.2143 64.0429 68.8852 64.1484 68.6661 64.3862L67.3333 65.8195L66.0005 64.388C65.8239 64.1986 65.5756 64.0908 65.3154 64.0908C65.2545 64.0905 65.1939 64.0967 65.1344 64.1093L63.2052 64.488L62.9756 62.5501C62.9375 62.2293 62.7338 61.9515 62.438 61.8167L60.6534 61.0047L61.6138 59.3047C61.7744 59.0223 61.7782 58.6793 61.6138 58.3991V58.4028L60.6534 56.7028L62.438 55.8908C62.7338 55.7561 62.9375 55.4782 62.9756 55.1575L63.2052 53.2195L65.1344 53.5982C65.4522 53.6629 65.7809 53.5575 66.0005 53.3204L67.3333 51.8843L68.6661 53.3158C68.8851 53.5537 69.2143 53.6592 69.5322 53.5936L71.4614 53.2149L71.691 55.1528C71.7291 55.4736 71.9328 55.7515 72.2286 55.8862L74.0132 56.6982L73.0528 58.3982C72.8939 58.6795 72.8939 59.0225 73.0528 59.3038Z" fill="url(#paint1_linear)"/>
<path d="M67.3333 54.2222C64.7561 54.2222 62.6667 56.295 62.6667 58.8518C62.6697 61.4074 64.7573 63.4784 67.3333 63.4815C69.9106 63.4815 72 61.4087 72 58.8518C72 56.295 69.9106 54.2222 67.3333 54.2222ZM67.3333 61.6296C65.7869 61.6296 64.5333 60.386 64.5333 58.8518C64.5333 57.3177 65.7869 56.0741 67.3333 56.0741C68.8797 56.0741 70.1333 57.3177 70.1333 58.8518C70.1333 60.386 68.8797 61.6296 67.3333 61.6296Z" fill="url(#paint2_linear)"/>
<path d="M65.4667 37.5556H50.5333V39.4074H65.4667V37.5556Z" fill="url(#paint3_linear)"/>
<path d="M74.8 43.1111H41.2V44.963H74.8V43.1111Z" fill="url(#paint4_linear)"/>
<path d="M74.8 46.8148H41.2V48.6667H74.8V46.8148Z" fill="url(#paint5_linear)"/>
<path d="M54.2667 58.8519H42.1333V60.7037H54.2667V58.8519Z" fill="url(#paint6_linear)"/>
</g>
<defs>
<filter id="filter0_d" x="0" y="0" width="116" height="116" filterUnits="userSpaceOnUse" color-interpolation-filters="sRGB">
<feFlood flood-opacity="0" result="BackgroundImageFix"/>
<feColorMatrix in="SourceAlpha" type="matrix" values="0 0 0 0 0 0 0 0 0 0 0 0 0 0 0 0 0 0 127 0"/>
<feOffset dy="5"/>
<feGaussianBlur stdDeviation="4"/>
<feColorMatrix type="matrix" values="0 0 0 0 0 0 0 0 0 0.678431 0 0 0 0 0.933333 0 0 0 0.5 0"/>
<feBlend mode="normal" in2="BackgroundImageFix" result="effect1_dropShadow"/>
<feBlend mode="normal" in="SourceGraphic" in2="effect1_dropShadow" result="shape"/>
</filter>
<filter id="filter1_d" x="25" y="30" width="66" height="60" filterUnits="userSpaceOnUse" color-interpolation-filters="sRGB">
<feFlood flood-opacity="0" result="BackgroundImageFix"/>
<feColorMatrix in="SourceAlpha" type="matrix" values="0 0 0 0 0 0 0 0 0 0 0 0 0 0 0 0 0 0 127 0"/>
<feOffset dy="3"/>
<feGaussianBlur stdDeviation="2.5"/>
<feColorMatrix type="matrix" values="0 0 0 0 0 0 0 0 0 0.678431 0 0 0 0 0.933333 0 0 0 0.5 0"/>
<feBlend mode="normal" in2="BackgroundImageFix" result="effect1_dropShadow"/>
<feBlend mode="normal" in="SourceGraphic" in2="effect1_dropShadow" result="shape"/>
</filter>
<linearGradient id="paint0_linear" x1="30" y1="57" x2="86" y2="57" gradientUnits="userSpaceOnUse">
<stop stop-color="#00ADEE"/>
<stop offset="1" stop-color="#00B08D"/>
</linearGradient>
<linearGradient id="paint1_linear" x1="30" y1="57" x2="86" y2="57" gradientUnits="userSpaceOnUse">
<stop stop-color="#00ADEE"/>
<stop offset="1" stop-color="#00B08D"/>
</linearGradient>
<linearGradient id="paint2_linear" x1="30" y1="57" x2="86" y2="57" gradientUnits="userSpaceOnUse">
<stop stop-color="#00ADEE"/>
<stop offset="1" stop-color="#00B08D"/>
</linearGradient>
<linearGradient id="paint3_linear" x1="30" y1="57" x2="86" y2="57" gradientUnits="userSpaceOnUse">
<stop stop-color="#00ADEE"/>
<stop offset="1" stop-color="#00B08D"/>
</linearGradient>
<linearGradient id="paint4_linear" x1="30" y1="57" x2="86" y2="57" gradientUnits="userSpaceOnUse">
<stop stop-color="#00ADEE"/>
<stop offset="1" stop-color="#00B08D"/>
</linearGradient>
<linearGradient id="paint5_linear" x1="30" y1="57" x2="86" y2="57" gradientUnits="userSpaceOnUse">
<stop stop-color="#00ADEE"/>
<stop offset="1" stop-color="#00B08D"/>
</linearGradient>
<linearGradient id="paint6_linear" x1="30" y1="57" x2="86" y2="57" gradientUnits="userSpaceOnUse">
<stop stop-color="#00ADEE"/>
<stop offset="1" stop-color="#00B08D"/>
</linearGradient>
</defs>
</svg>
