<svg width="116" height="116" viewBox="0 0 116 116" fill="none" xmlns="http://www.w3.org/2000/svg">
<g filter="url(#filter0_d)">
<circle cx="58" cy="53" r="50" fill="#F7FDFF"/>
</g>
<g filter="url(#filter1_d)">
<path d="M80.7949 57.9518L82.9404 41.4663L67.5485 35.7751L62.6746 38.043C62.5241 38.7683 62.2961 39.4741 61.9978 40.1532L65.6874 38.4365L64.1641 54.4139L64.2493 55.2699L53.0073 56.9223L52.0846 58.6955L64.4116 56.8844L65.8327 71.0554L67.487 70.8966L66.0571 56.6438L66.2011 56.6218L79.0896 58.213L79.1209 57.9676L81.0685 73.9055L67.6461 70.8867L50.1799 74.1291L50.0344 74.1022L51.6045 59.5648L51.5299 58.9317L49.3778 54.7918L49.6814 57.4108L49.2975 57.467L36.847 55.5875L36.9208 54.9903L35.0131 40.3339L43.7244 43.9178L42.9973 42.5211C42.762 42.224 42.5489 41.9125 42.3469 41.5957L33 37.7493L35.2459 54.9964L35.2036 55.3394L35.1723 55.3346L34.917 56.9343L35.0088 56.9465L33.09 72.6525L50.1822 75.7753L67.615 72.5404L83 76L80.7949 57.9518ZM66.1826 54.9867L65.8956 55.0276L65.8328 54.4187L67.4345 37.6228L67.6237 37.5346L81.1263 42.5269L79.2928 56.6035L66.1826 54.9867ZM48.3957 73.803L34.9232 71.3411L36.6527 57.1969L49.2952 59.1058L49.8695 59.0216L49.9337 59.5711L48.3957 73.803ZM51.7466 59.3464L51.531 58.9323L51.5135 58.7797L52.0854 58.6955L51.7466 59.3464ZM44.2897 41.1369L51.631 55.2541L58.8924 41.288C60.3186 39.6675 61.1859 37.5673 61.1859 35.2687C61.1858 30.1579 56.9184 26 51.6732 26C46.4283 26 42.1626 30.1579 42.1626 35.2687C42.1626 37.4941 42.9723 39.5368 44.3179 41.1369H44.2897ZM51.6738 29.572C54.8969 29.572 57.5202 32.128 57.5202 35.2687C57.5202 38.4093 54.8969 40.9656 51.6738 40.9656C48.4508 40.9656 45.8277 38.4093 45.8277 35.2687C45.8278 32.128 48.4501 29.572 51.6738 29.572Z" fill="url(#paint0_linear)"/>
<path d="M62.1032 40.3799L65.3971 38.8474L63.9152 54.3902L63.9129 54.4145L63.9153 54.4387L63.9769 55.0573L52.9709 56.6749L52.8445 56.6935L52.7855 56.8069L51.9218 58.4669L51.595 58.515L49.5996 54.6765L49.1294 54.8206L49.4051 57.1986L49.2981 57.2142L37.1249 55.3766L37.169 55.021L37.1729 54.9895L37.1688 54.958L35.3167 40.7291L43.6293 44.149L44.2622 44.4094L43.9462 43.8024L43.219 42.4056L43.208 42.3845L43.1933 42.3659C42.9651 42.0776 42.757 41.7738 42.5577 41.4613L42.5151 41.3946L42.442 41.3645L33.0951 37.5181L32.6964 37.354L32.7521 37.7815L34.9939 54.9972L34.9871 55.0528L34.9647 55.0493L34.9255 55.2952L34.6701 56.8949L34.6296 57.1484L34.7306 57.1618L32.8419 72.6222L32.8133 72.8561L33.0451 72.8985L50.1373 76.0212L50.1826 76.0295L50.2278 76.0211L67.6102 72.7955L82.9452 76.2439L83.2912 76.3217L83.2482 75.9697L81.0469 57.9528L83.1883 41.4986L83.2141 41.301L83.0271 41.2319L67.6352 35.5406L67.5375 35.5045L67.443 35.5485L62.5691 37.8163L62.4553 37.8693L62.4298 37.9922C62.283 38.6998 62.0604 39.3891 61.7689 40.0527L61.5023 40.6595L62.1032 40.3799ZM50.3131 73.8501L51.8406 59.7072L51.9683 59.4618L52.2482 58.9241L64.189 57.1698L65.5776 71.0164L50.3131 73.8501ZM67.713 70.6455L66.333 56.89L78.9274 58.4449L80.7773 73.5838L67.713 70.6455ZM66.2132 54.7385L66.1802 54.7345L66.1473 54.7392L66.1176 54.7434L66.0841 54.4177L67.6671 37.8172L80.8526 42.6922L79.0769 56.3249L66.2132 54.7385ZM35.2 71.1375L36.8697 57.4825L49.2579 59.353L49.2946 59.3585L49.3315 59.3531L49.6511 59.3063L49.6821 59.5722L48.176 73.5088L35.2 71.1375ZM41.9126 35.2687C41.9126 37.5038 42.7074 39.5589 44.0326 41.1843L44.0679 41.2522L51.4092 55.3694L51.631 55.796L51.8528 55.3694L59.1002 41.4302C60.5522 39.77 61.4359 37.6209 61.4359 35.2687C61.4358 30.0137 57.0503 25.75 51.6732 25.75C46.2964 25.75 41.9126 30.0138 41.9126 35.2687ZM51.6738 29.822C54.765 29.822 57.2702 32.2721 57.2702 35.2687C57.2702 38.2651 54.765 40.7156 51.6738 40.7156C48.5827 40.7156 46.0777 38.2652 46.0777 35.2687C46.0778 32.2721 48.5821 29.822 51.6738 29.822Z" stroke="url(#paint1_linear)" stroke-width="0.5"/>
</g>
<defs>
<filter id="filter0_d" x="0" y="0" width="116" height="116" filterUnits="userSpaceOnUse" color-interpolation-filters="sRGB">
<feFlood flood-opacity="0" result="BackgroundImageFix"/>
<feColorMatrix in="SourceAlpha" type="matrix" values="0 0 0 0 0 0 0 0 0 0 0 0 0 0 0 0 0 0 127 0"/>
<feOffset dy="5"/>
<feGaussianBlur stdDeviation="4"/>
<feColorMatrix type="matrix" values="0 0 0 0 0 0 0 0 0 0.678431 0 0 0 0 0.933333 0 0 0 0.5 0"/>
<feBlend mode="normal" in2="BackgroundImageFix" result="effect1_dropShadow"/>
<feBlend mode="normal" in="SourceGraphic" in2="effect1_dropShadow" result="shape"/>
</filter>
<filter id="filter1_d" x="27.3928" y="23.5" width="61.1895" height="61.1434" filterUnits="userSpaceOnUse" color-interpolation-filters="sRGB">
<feFlood flood-opacity="0" result="BackgroundImageFix"/>
<feColorMatrix in="SourceAlpha" type="matrix" values="0 0 0 0 0 0 0 0 0 0 0 0 0 0 0 0 0 0 127 0"/>
<feOffset dy="3"/>
<feGaussianBlur stdDeviation="2.5"/>
<feColorMatrix type="matrix" values="0 0 0 0 0 0 0 0 0 0.678431 0 0 0 0 0.933333 0 0 0 0.5 0"/>
<feBlend mode="normal" in2="BackgroundImageFix" result="effect1_dropShadow"/>
<feBlend mode="normal" in="SourceGraphic" in2="effect1_dropShadow" result="shape"/>
</filter>
<linearGradient id="paint0_linear" x1="33" y1="51" x2="83" y2="51" gradientUnits="userSpaceOnUse">
<stop stop-color="#00ADEE"/>
<stop offset="1" stop-color="#00B08D"/>
</linearGradient>
<linearGradient id="paint1_linear" x1="33" y1="51" x2="83" y2="51" gradientUnits="userSpaceOnUse">
<stop stop-color="#00ADEE"/>
<stop offset="1" stop-color="#00B08D"/>
</linearGradient>
</defs>
</svg>
