<svg width="116" height="116" viewBox="0 0 116 116" fill="none" xmlns="http://www.w3.org/2000/svg">
<g filter="url(#filter0_d)">
<circle cx="58" cy="53" r="50" fill="#F7FDFF"/>
</g>
<g filter="url(#filter1_d)">
<path d="M79.9864 50.4652C79.9146 49.779 79.5594 49.1463 79.0122 48.7273L76.5079 46.7757L77.4492 43.6668C77.65 43.0035 77.5667 42.2787 77.2206 41.6778C76.8742 41.0774 76.2887 40.6429 75.6143 40.485L72.4638 39.7487L72.0617 36.5357C71.9754 35.8475 71.6048 35.2191 71.0448 34.8125C70.4842 34.4043 69.7722 34.2453 69.0924 34.3764L65.9151 34.9863L64.2417 32.2144C63.5756 31.1112 62.1771 30.6946 60.9895 31.2443C60.9059 31.2829 60.8253 31.3293 60.7551 31.379L57.9974 33.3018L55.3424 31.4506C54.7741 31.0548 54.06 30.9106 53.3826 31.0544C52.7052 31.1983 52.111 31.6217 51.7528 32.2151L50.0801 34.9866L46.9024 34.3764C46.2219 34.246 45.5106 34.4049 44.951 34.8122C44.3904 35.2198 44.0198 35.8482 43.9338 36.5357L43.5317 39.7491L40.1996 40.5276L40.0431 40.5787L39.9854 40.6039C38.7749 41.1338 38.1693 42.4221 38.5459 43.6668L39.4869 46.7757L36.8752 48.8093L36.7238 48.941L36.6811 48.9877C35.8046 49.9461 35.7704 51.3957 36.5996 52.3647L38.6443 54.8123L36.987 57.8228L36.9208 57.9733L36.9017 58.0294C36.4885 59.2657 37.0514 60.6091 38.2109 61.1538L41.1395 62.5295L40.8652 65.756C40.8065 66.4472 41.0388 67.139 41.5021 67.6538C41.9653 68.169 42.6283 68.4724 43.3212 68.4865L46.5556 68.551L47.6164 71.6099C47.8433 72.2651 48.3365 72.8027 48.9689 73.0843C49.6014 73.3662 50.3301 73.3736 50.9693 73.1045L53.9506 71.8467L56.2907 74.3464L56.4133 74.4556L56.4606 74.4909C56.9229 74.8327 57.463 75 57.9981 75C58.6752 75 59.3439 74.7318 59.833 74.2093L62.0452 71.8467L65.0268 73.1048C65.6647 73.3736 66.3931 73.3662 67.0256 73.0847C67.6587 72.8027 68.1518 72.2651 68.3788 71.6102L69.4399 68.551L72.8613 68.4828L73.0238 68.465L73.0822 68.4532C74.3578 68.1928 75.2383 67.0332 75.1299 65.7563L74.856 62.5295L77.7849 61.1538C78.4117 60.8594 78.8941 60.3124 79.1082 59.6528C79.3221 58.9935 79.2532 58.267 78.9189 57.6598L77.3512 54.8123L79.3963 52.3647C79.8431 51.8422 80.0582 51.1507 79.9864 50.4652ZM74.9124 53.7055C74.5072 54.1843 74.438 54.8728 74.7412 55.4229L76.6254 58.8456L73.0909 60.5059C72.5179 60.7754 72.1691 61.3806 72.2225 62.012L72.5531 65.9058L68.6497 65.9838C68.0169 65.9966 67.4519 66.4072 67.2444 67.006L65.9641 70.6979L62.3668 69.1801C61.7834 68.9341 61.1006 69.0789 60.6672 69.5416L57.9974 72.3931L55.3276 69.5413C55.0352 69.2288 54.6287 69.0614 54.2158 69.0614C54.0174 69.0614 53.8177 69.1001 53.6287 69.1801L50.0307 70.6979L48.7507 67.007C48.5436 66.4079 47.9786 65.9966 47.3452 65.9838L43.4414 65.9058L43.772 62.012C43.8257 61.3806 43.4766 60.7754 42.9036 60.5059L39.3694 58.8456L41.2536 55.4232C41.5571 54.8725 41.4876 54.1843 41.0821 53.7052L38.602 50.7364L41.6407 48.3701C42.1382 47.986 42.3497 47.3261 42.1671 46.7246L41.0351 42.9846L44.8375 42.0955C45.4535 41.9514 45.9205 41.4325 45.9997 40.8035L46.4851 36.9258L50.3201 37.662C50.9418 37.781 51.5789 37.4967 51.9066 36.9547L53.9254 33.6099L57.129 35.8431C57.6486 36.2054 58.3469 36.2057 58.8662 35.8431L62.0697 33.6096L64.0889 36.9537C64.4159 37.4964 65.0544 37.781 65.6761 37.6617L69.5104 36.9255L69.9958 40.8028C70.0744 41.4315 70.5413 41.951 71.1583 42.0955L74.9604 42.9843L73.8281 46.7243C73.6458 47.3271 73.8576 47.9867 74.3551 48.3704L77.3925 50.7377L74.9124 53.7055Z" fill="url(#paint0_linear)"/>
<path d="M58.1344 42.035C52.0929 42.035 47.1776 46.9547 47.1776 53.0024C47.1776 59.0499 52.0929 63.9699 58.1344 63.9699C64.1762 63.9699 69.0914 59.0499 69.0914 53.0024C69.0914 46.9547 64.1759 42.035 58.1344 42.035ZM58.1344 61.3873C53.5156 61.3873 49.7575 57.6258 49.7575 53.0024C49.7575 48.3788 53.5156 44.6173 58.1344 44.6173C62.7535 44.6173 66.5113 48.3788 66.5113 53.0024C66.5113 57.6258 62.7535 61.3873 58.1344 61.3873Z" fill="url(#paint1_linear)"/>
<path d="M61.2839 49.5972L56.1944 54.6913L54.8133 53.3086C54.3095 52.8045 53.4927 52.8045 52.9892 53.3086C52.4853 53.8129 52.4853 54.6305 52.9892 55.1349L55.2823 57.4302C55.5341 57.6826 55.8644 57.8086 56.1944 57.8086C56.5244 57.8086 56.8547 57.6826 57.1065 57.4302L63.108 51.4231C63.6116 50.9188 63.6116 50.1012 63.108 49.5972C62.6041 49.0928 61.7874 49.0928 61.2839 49.5972Z" fill="url(#paint2_linear)"/>
</g>
<defs>
<filter id="filter0_d" x="0" y="0" width="116" height="116" filterUnits="userSpaceOnUse" color-interpolation-filters="sRGB">
<feFlood flood-opacity="0" result="BackgroundImageFix"/>
<feColorMatrix in="SourceAlpha" type="matrix" values="0 0 0 0 0 0 0 0 0 0 0 0 0 0 0 0 0 0 127 0"/>
<feOffset dy="5"/>
<feGaussianBlur stdDeviation="4"/>
<feColorMatrix type="matrix" values="0 0 0 0 0 0 0 0 0 0.678431 0 0 0 0 0.933333 0 0 0 0.5 0"/>
<feBlend mode="normal" in2="BackgroundImageFix" result="effect1_dropShadow"/>
<feBlend mode="normal" in="SourceGraphic" in2="effect1_dropShadow" result="shape"/>
</filter>
<filter id="filter1_d" x="31" y="29" width="54" height="54" filterUnits="userSpaceOnUse" color-interpolation-filters="sRGB">
<feFlood flood-opacity="0" result="BackgroundImageFix"/>
<feColorMatrix in="SourceAlpha" type="matrix" values="0 0 0 0 0 0 0 0 0 0 0 0 0 0 0 0 0 0 127 0"/>
<feOffset dy="3"/>
<feGaussianBlur stdDeviation="2.5"/>
<feColorMatrix type="matrix" values="0 0 0 0 0 0 0 0 0 0.678431 0 0 0 0 0.933333 0 0 0 0.5 0"/>
<feBlend mode="normal" in2="BackgroundImageFix" result="effect1_dropShadow"/>
<feBlend mode="normal" in="SourceGraphic" in2="effect1_dropShadow" result="shape"/>
</filter>
<linearGradient id="paint0_linear" x1="36" y1="53" x2="80" y2="53" gradientUnits="userSpaceOnUse">
<stop stop-color="#00ADEE"/>
<stop offset="1" stop-color="#00B08D"/>
</linearGradient>
<linearGradient id="paint1_linear" x1="36" y1="53" x2="80" y2="53" gradientUnits="userSpaceOnUse">
<stop stop-color="#00ADEE"/>
<stop offset="1" stop-color="#00B08D"/>
</linearGradient>
<linearGradient id="paint2_linear" x1="36" y1="53" x2="80" y2="53" gradientUnits="userSpaceOnUse">
<stop stop-color="#00ADEE"/>
<stop offset="1" stop-color="#00B08D"/>
</linearGradient>
</defs>
</svg>
