<svg width="116" height="116" viewBox="0 0 116 116" fill="none" xmlns="http://www.w3.org/2000/svg">
<g filter="url(#filter0_d)">
<circle cx="58" cy="53" r="50" fill="#F7FDFF"/>
</g>
<g filter="url(#filter1_d)">
<path d="M79.6857 53.6476C79.4845 53.236 79.4845 52.764 79.6857 52.3524L81.5514 48.5375C82.5902 46.4134 81.7672 43.8817 79.6777 42.7736L75.9249 40.7834C75.5201 40.5688 75.2425 40.1868 75.1633 39.7357L74.4293 35.5532C74.0206 33.2245 71.8655 31.6597 69.5238 31.9909L65.3175 32.5856C64.8634 32.6496 64.4145 32.5037 64.0851 32.1853L61.0318 29.233C59.3317 27.5891 56.6683 27.589 54.9683 29.233L51.9149 32.1856C51.5854 32.5041 51.1365 32.6497 50.6826 32.5859L46.4762 31.9912C44.1337 31.6598 41.9794 33.2248 41.5707 35.5535L40.8368 39.7358C40.7575 40.187 40.4799 40.5689 40.0752 40.7836L36.3224 42.7738C34.2329 43.8818 33.4099 46.4137 34.4487 48.5378L36.3143 52.3526C36.5156 52.7643 36.5156 53.2363 36.3143 53.6478L34.4486 57.4626C33.4098 59.5867 34.2328 62.1184 36.3223 63.2265L40.0751 65.2167C40.4799 65.4314 40.7575 65.8134 40.8368 66.2645L41.5707 70.447C41.9427 72.5669 43.7614 74.0536 45.8515 74.0534C46.0574 74.0534 46.2663 74.0389 46.4763 74.0092L50.6827 73.4145C51.1363 73.3502 51.5855 73.4963 51.915 73.8148L54.9683 76.7671C55.8185 77.5892 56.9091 78.0001 58 78C59.0907 77.9999 60.1819 77.589 61.0317 76.7671L64.0851 73.8148C64.4146 73.4963 64.8636 73.3508 65.3175 73.4145L69.5238 74.0092C71.8666 74.3405 74.0206 72.7755 74.4293 70.4469L75.1633 66.2646C75.2426 65.8134 75.5202 65.4315 75.9249 65.2167L79.6777 63.2265C81.7672 62.1185 82.5902 59.5866 81.5514 57.4625L79.6857 53.6476ZM78.3254 60.679L74.5726 62.6692C73.3762 63.3039 72.5556 64.4326 72.3216 65.7662L71.5876 69.9485C71.4494 70.7364 70.7206 71.2656 69.9279 71.1538L65.7215 70.5591C64.3801 70.3691 63.0527 70.8007 62.0791 71.742L59.0257 74.6942C58.4506 75.2502 57.5495 75.2502 56.9742 74.6942L53.9209 71.7419C53.0981 70.9463 52.0224 70.5151 50.8994 70.5151C50.6936 70.5151 50.4862 70.5296 50.2785 70.559L46.0721 71.1537C45.2801 71.2656 44.5507 70.7363 44.4124 69.9484L43.6783 65.766C43.4442 64.4324 42.6237 63.3036 41.4272 62.6691L37.6744 60.6789C36.9674 60.304 36.689 59.4475 37.0404 58.7288L38.9061 54.9139C39.501 53.6975 39.501 52.3024 38.9061 51.0861L37.0404 47.2712C36.689 46.5525 36.9674 45.696 37.6744 45.3211L41.4272 43.3309C42.6236 42.6962 43.4442 41.5675 43.6782 40.2339L44.4122 36.0516C44.5505 35.2637 45.2792 34.7344 46.0719 34.8463L50.2783 35.441C51.6192 35.6308 52.9471 35.1994 53.9207 34.2581L56.9741 31.3058C57.5492 30.7498 58.4503 30.7498 59.0256 31.3058L62.0789 34.2581C63.0525 35.1995 64.3802 35.6308 65.7214 35.441L69.9278 34.8463C70.7198 34.7343 71.4492 35.2637 71.5874 36.0516L72.3214 40.234C72.5555 41.5676 73.376 42.6964 74.5725 43.3309L78.3253 45.3211C79.0323 45.696 79.3107 46.5525 78.9593 47.2712L77.0936 51.086C76.4987 52.3022 76.4987 53.6975 77.0936 54.9138L78.9593 58.7286C79.3108 59.4475 79.0324 60.3041 78.3254 60.679Z" fill="url(#paint0_linear)"/>
<path d="M68.5406 42.4644C67.9773 41.9014 67.0638 41.9014 66.5005 42.4644L47.4592 61.4964C46.8959 62.0595 46.8959 62.9725 47.4592 63.5356C47.7409 63.8171 48.1101 63.9579 48.4793 63.9579C48.8484 63.9579 49.2177 63.8172 49.4993 63.5356L68.5405 44.5037C69.104 43.9405 69.104 43.0276 68.5406 42.4644Z" fill="url(#paint1_linear)"/>
<path d="M52.2296 40.0231C49.313 40.0231 46.9401 42.3948 46.9401 45.31C46.9401 48.2252 49.313 50.597 52.2296 50.597C55.1462 50.597 57.5191 48.2252 57.5191 45.31C57.5191 42.3948 55.1462 40.0231 52.2296 40.0231ZM52.2296 47.7131C50.9039 47.7131 49.8253 46.6351 49.8253 45.3099C49.8253 43.9848 50.9039 42.9068 52.2296 42.9068C53.5553 42.9068 54.634 43.9848 54.634 45.3099C54.6339 46.6351 53.5553 47.7131 52.2296 47.7131Z" fill="url(#paint2_linear)"/>
<path d="M63.7702 55.4032C60.8536 55.4032 58.4807 57.775 58.4807 60.6902C58.4807 63.6054 60.8536 65.9771 63.7702 65.9771C66.6869 65.9771 69.0598 63.6054 69.0598 60.6902C69.0598 57.775 66.6869 55.4032 63.7702 55.4032ZM63.7702 63.0933C62.4445 63.0933 61.3659 62.0152 61.3659 60.6902C61.3659 59.3651 62.4444 58.2871 63.7702 58.2871C65.096 58.2871 66.1745 59.3651 66.1745 60.6902C66.1745 62.0152 65.096 63.0933 63.7702 63.0933Z" fill="url(#paint3_linear)"/>
</g>
<defs>
<filter id="filter0_d" x="0" y="0" width="116" height="116" filterUnits="userSpaceOnUse" color-interpolation-filters="sRGB">
<feFlood flood-opacity="0" result="BackgroundImageFix"/>
<feColorMatrix in="SourceAlpha" type="matrix" values="0 0 0 0 0 0 0 0 0 0 0 0 0 0 0 0 0 0 127 0"/>
<feOffset dy="5"/>
<feGaussianBlur stdDeviation="4"/>
<feColorMatrix type="matrix" values="0 0 0 0 0 0 0 0 0 0.678431 0 0 0 0 0.933333 0 0 0 0.5 0"/>
<feBlend mode="normal" in2="BackgroundImageFix" result="effect1_dropShadow"/>
<feBlend mode="normal" in="SourceGraphic" in2="effect1_dropShadow" result="shape"/>
</filter>
<filter id="filter1_d" x="29" y="26" width="58" height="60" filterUnits="userSpaceOnUse" color-interpolation-filters="sRGB">
<feFlood flood-opacity="0" result="BackgroundImageFix"/>
<feColorMatrix in="SourceAlpha" type="matrix" values="0 0 0 0 0 0 0 0 0 0 0 0 0 0 0 0 0 0 127 0"/>
<feOffset dy="3"/>
<feGaussianBlur stdDeviation="2.5"/>
<feColorMatrix type="matrix" values="0 0 0 0 0 0 0 0 0 0.678431 0 0 0 0 0.933333 0 0 0 0.5 0"/>
<feBlend mode="normal" in2="BackgroundImageFix" result="effect1_dropShadow"/>
<feBlend mode="normal" in="SourceGraphic" in2="effect1_dropShadow" result="shape"/>
</filter>
<linearGradient id="paint0_linear" x1="34" y1="53" x2="82" y2="53" gradientUnits="userSpaceOnUse">
<stop stop-color="#00ADEE"/>
<stop offset="1" stop-color="#00B08D"/>
</linearGradient>
<linearGradient id="paint1_linear" x1="34" y1="53" x2="82" y2="53" gradientUnits="userSpaceOnUse">
<stop stop-color="#00ADEE"/>
<stop offset="1" stop-color="#00B08D"/>
</linearGradient>
<linearGradient id="paint2_linear" x1="34" y1="53" x2="82" y2="53" gradientUnits="userSpaceOnUse">
<stop stop-color="#00ADEE"/>
<stop offset="1" stop-color="#00B08D"/>
</linearGradient>
<linearGradient id="paint3_linear" x1="34" y1="53" x2="82" y2="53" gradientUnits="userSpaceOnUse">
<stop stop-color="#00ADEE"/>
<stop offset="1" stop-color="#00B08D"/>
</linearGradient>
</defs>
</svg>
