<svg width="40" height="40" viewBox="0 0 40 40" fill="none" xmlns="http://www.w3.org/2000/svg">
<g filter="url(#filter0_d)">
<path fill-rule="evenodd" clip-rule="evenodd" d="M19.9963 2H20.0037C28.2744 2 35 8.72938 35 17C35 25.2706 28.2744 32 20.0037 32C16.9531 32 14.1237 31.0925 11.7519 29.5212L5.98625 31.3644L7.85562 25.7919C6.0575 23.3225 5 20.2812 5 17C5 8.7275 11.7256 2 19.9963 2ZM25.788 25.2987C26.9337 25.0512 28.3699 24.2037 28.7318 23.1819C29.0937 22.1581 29.0937 21.2862 28.9887 21.1006C28.9039 20.9533 28.7034 20.8568 28.4041 20.7127C28.3262 20.6752 28.2416 20.6344 28.1505 20.5887C27.7099 20.3694 25.5668 19.31 25.1618 19.1694C24.7643 19.0194 24.3855 19.0719 24.0855 19.4956C24.0285 19.5755 23.9716 19.6556 23.9149 19.7352C23.553 20.2442 23.2039 20.7352 22.9137 21.0481C22.6493 21.3294 22.218 21.365 21.8562 21.215C21.8167 21.1985 21.7715 21.1803 21.7208 21.1598C21.1479 20.9284 19.877 20.4151 18.3387 19.0456C17.0412 17.8906 16.1599 16.4525 15.9049 16.0212C15.6545 15.5886 15.8705 15.3349 16.0701 15.1005C16.0738 15.0962 16.0775 15.0918 16.0812 15.0875C16.2098 14.9283 16.3347 14.7957 16.4602 14.6625C16.5505 14.5666 16.6411 14.4704 16.7337 14.3637C16.7474 14.3479 16.7608 14.3325 16.7738 14.3176C16.9704 14.0916 17.0874 13.957 17.2193 13.6756C17.3693 13.385 17.2624 13.085 17.1555 12.8637C17.082 12.7088 16.6278 11.6067 16.2378 10.6606C16.071 10.2557 15.9159 9.87941 15.8074 9.61811C15.5168 8.92249 15.2955 8.89624 14.8549 8.87749C14.8414 8.87681 14.8278 8.87612 14.814 8.87543C14.6747 8.86838 14.5213 8.86061 14.3524 8.86061C13.7787 8.86061 13.1805 9.02936 12.8187 9.39874C12.806 9.41165 12.7928 9.42506 12.7792 9.43897C12.3162 9.9098 11.2849 10.9586 11.2849 13.0494C11.2849 15.1441 12.7712 17.1714 13.0462 17.5465C13.0538 17.5569 13.0605 17.5659 13.0662 17.5737C13.0827 17.5955 13.1139 17.6406 13.1593 17.7064C13.7208 18.5196 16.4558 22.4803 20.5343 24.17C23.9805 25.5987 25.0043 25.4656 25.788 25.2987Z" fill="#00ADEE"/>
</g>
<defs>
<filter id="filter0_d" x="0" y="0" width="40" height="40" filterUnits="userSpaceOnUse" color-interpolation-filters="sRGB">
<feFlood flood-opacity="0" result="BackgroundImageFix"/>
<feColorMatrix in="SourceAlpha" type="matrix" values="0 0 0 0 0 0 0 0 0 0 0 0 0 0 0 0 0 0 127 0"/>
<feOffset dy="3"/>
<feGaussianBlur stdDeviation="2.5"/>
<feColorMatrix type="matrix" values="0 0 0 0 0 0 0 0 0 0.678431 0 0 0 0 0.933333 0 0 0 0.5 0"/>
<feBlend mode="normal" in2="BackgroundImageFix" result="effect1_dropShadow"/>
<feBlend mode="normal" in="SourceGraphic" in2="effect1_dropShadow" result="shape"/>
</filter>
</defs>
</svg>
