<svg width="20" height="20" viewBox="0 0 20 20" fill="none" xmlns="http://www.w3.org/2000/svg">
<path d="M2.91552 2.9289C-0.879585 6.82777 -0.87985 13.1719 2.91552 17.071C6.71089 20.9702 12.8861 20.9699 16.6812 17.071C20.4764 13.1721 20.4766 6.82805 16.6812 2.9289C12.8859 -0.97025 6.71063 -0.969978 2.91552 2.9289ZM16.1518 16.5271C12.6487 20.126 6.94808 20.126 3.44497 16.5271C-0.0581419 12.9282 -0.0581419 7.07172 3.44497 3.47283C6.94808 -0.126074 12.6487 -0.126074 16.1518 3.47283C19.6549 7.07172 19.6549 12.9282 16.1518 16.5271Z" fill="#F7FDFF"/>
<path d="M12.8427 6.32845L9.79838 9.45603L6.8864 6.46443C6.74001 6.31403 6.50308 6.31431 6.35695 6.46443C6.21082 6.61455 6.21056 6.85796 6.35695 7.00836L9.26893 9.99996L6.22459 13.1275C6.07846 13.2777 6.0782 13.5211 6.22459 13.6715C6.37098 13.8219 6.60791 13.8216 6.75404 13.6715L9.79838 10.5439L12.9751 13.8075C13.1215 13.9579 13.3584 13.9576 13.5045 13.8075C13.6507 13.6573 13.6509 13.4139 13.5045 13.2635L10.3278 9.99996L13.3722 6.87238C13.5183 6.72225 13.5186 6.47884 13.3722 6.32845C13.2258 6.17805 12.9889 6.17832 12.8427 6.32845Z" fill="#F7FDFF"/>
</svg>
