<svg width="20" height="20" viewBox="0 0 20 20" fill="none" xmlns="http://www.w3.org/2000/svg">
<path d="M10 0C4.48615 0 0 4.48577 0 10C0 15.5142 4.48615 20 10 20C15.5138 20 20 15.5142 20 10C20 4.48577 15.5138 0 10 0ZM10 19.2308C4.91038 19.2308 0.769231 15.0896 0.769231 10C0.769231 4.91038 4.91038 0.769231 10 0.769231C15.0896 0.769231 19.2308 4.91038 19.2308 10C19.2308 15.0896 15.0896 19.2308 10 19.2308Z" fill="#00B08D"/>
<path d="M14.8077 9.61539H10.3846V5.38462C10.3846 5.17192 10.2123 5 10 5C9.78769 5 9.61539 5.17192 9.61539 5.38462V9.61539H5.19231C4.98 9.61539 4.80769 9.78731 4.80769 10C4.80769 10.2127 4.98 10.3846 5.19231 10.3846H9.61539V15C9.61539 15.2127 9.78769 15.3846 10 15.3846C10.2123 15.3846 10.3846 15.2127 10.3846 15V10.3846H14.8077C15.02 10.3846 15.1923 10.2127 15.1923 10C15.1923 9.78731 15.02 9.61539 14.8077 9.61539Z" fill="#00B08D"/>
</svg>
